<svg width="97" height="20" viewBox="0 0 97 20" fill="none" xmlns="http://www.w3.org/2000/svg">
<g clip-path="url(#clip0_6_1124)">
<path d="M30.1167 0.663786H27.8814L24.9751 19.3362H35.6199L35.9041 17.4823H27.4947L30.1167 0.663786Z" fill="white"/>
<path d="M48.092 0.428123C42.5115 0.428123 38.2188 5.2337 38.2188 11.1881C38.2188 15.9937 41.535 19.5719 46.6263 19.5719C52.0521 19.5719 56.3468 15.0275 56.3468 8.83936C56.3449 4.26748 53.3883 0.428123 48.092 0.428123ZM46.6514 17.7101C43.078 17.7101 40.5314 15.2553 40.5314 11.1803C40.5314 6.34918 43.4319 2.24863 48.0727 2.24863C51.9303 2.24863 54.038 5.19442 54.038 8.82954C54.0322 13.9297 51.0234 17.716 46.6514 17.716V17.7101Z" fill="white"/>
<path d="M68.1999 11.7832H73.6509C73.1114 15.2298 71.1816 17.7376 67.5057 17.7376C63.4682 17.7376 61.4108 15.1257 61.4108 11.1312C61.4108 6.22152 64.1624 2.22506 68.662 2.22506C71.3885 2.22506 73.4188 3.5055 73.676 6.29811H75.8881C75.6309 2.30165 72.4423 0.422232 68.7142 0.422232C63.1608 0.422232 59.0981 5.30636 59.0981 11.1292C59.0981 15.9348 62.1069 19.5738 67.4554 19.5738C72.4191 19.5738 75.5304 16.6496 76.095 9.91163H68.5073L68.1999 11.7832Z" fill="white"/>
<path d="M88.7453 0.428123C83.1648 0.428123 78.8721 5.2337 78.8721 11.1881C78.8721 15.9937 82.1883 19.5719 87.2796 19.5719C92.7055 19.5719 97.0001 15.0275 97.0001 8.83936C97.0001 4.26748 94.0416 0.428123 88.7453 0.428123ZM87.3047 17.7101C83.7313 17.7101 81.1847 15.2553 81.1847 11.1803C81.1847 6.34918 84.0852 2.24863 88.726 2.24863C92.5836 2.24863 94.6913 5.19442 94.6913 8.82954C94.6855 13.9297 91.6768 17.716 87.3047 17.716V17.7101Z" fill="white"/>
<path d="M17.7181 0H3.11125L0 20H14.5082L17.7181 0Z" fill="white"/>
</g>
<defs>
<clipPath id="clip0_6_1124">
<rect width="97" height="20" fill="white"/>
</clipPath>
</defs>
</svg>
